<?xml version="1.0" encoding="UTF-8" standalone="no"?>
<!DOCTYPE svg PUBLIC "-//W3C//DTD SVG 1.1//EN"
 "http://www.w3.org/Graphics/SVG/1.1/DTD/svg11.dtd">
<!-- Generated by graphviz version 13.1.0 (20250701.0955)
 -->
<!-- Title: pmsx003_basic_wake_up Pages: 1 -->
<svg width="318pt" height="104pt"
 viewBox="0.00 0.00 318.00 104.00" xmlns="http://www.w3.org/2000/svg" xmlns:xlink="http://www.w3.org/1999/xlink">
<g id="graph0" class="graph" transform="scale(1 1) rotate(0) translate(4 100)">
<title>pmsx003_basic_wake_up</title>
<!-- Node1 -->
<g id="Node000001" class="node">
<title>Node1</title>
<g id="a_Node000001"><a xlink:title="basic wake up">
<polygon fill="#999999" stroke="#666666" points="128.5,-58 0,-58 0,-38 128.5,-38 128.5,-58"/>
<text xml:space="preserve" text-anchor="middle" x="64.25" y="-44.5" font-family="Helvetica,sans-Serif" font-size="10.00">pmsx003_basic_wake_up</text>
</a>
</g>
</g>
<!-- Node2 -->
<g id="Node000002" class="node">
<title>Node2</title>
<g id="a_Node000002"><a xlink:href="group__pmsx003__interface__driver.html#gaea3b03b3d22a3e3f1a9e932873af1acf" target="_top" xlink:title="interface delay ms">
<polygon fill="white" stroke="#666666" points="310.25,-96 164.5,-96 164.5,-76 310.25,-76 310.25,-96"/>
<text xml:space="preserve" text-anchor="middle" x="237.38" y="-82.5" font-family="Helvetica,sans-Serif" font-size="10.00">pmsx003_interface_delay_ms</text>
</a>
</g>
</g>
<!-- Node1&#45;&gt;Node2 -->
<g id="edge1_Node000001_Node000002" class="edge">
<title>Node1&#45;&gt;Node2</title>
<g id="a_edge1_Node000001_Node000002"><a xlink:title=" ">
<path fill="none" stroke="#63b8ff" d="M112.46,-58.48C132.85,-63.01 156.9,-68.35 178.36,-73.12"/>
<polygon fill="#63b8ff" stroke="#63b8ff" points="177.32,-76.47 187.84,-75.22 178.83,-69.64 177.32,-76.47"/>
</a>
</g>
</g>
<!-- Node3 -->
<g id="Node000003" class="node">
<title>Node3</title>
<g id="a_Node000003"><a xlink:href="group__pmsx003__basic__driver.html#ga112be5b27e9073d8d8ebfc35c4e50615" target="_top" xlink:title="set hard mode">
<polygon fill="white" stroke="#666666" points="301.25,-58 173.5,-58 173.5,-38 301.25,-38 301.25,-58"/>
<text xml:space="preserve" text-anchor="middle" x="237.38" y="-44.5" font-family="Helvetica,sans-Serif" font-size="10.00">pmsx003_set_hard_mode</text>
</a>
</g>
</g>
<!-- Node1&#45;&gt;Node3 -->
<g id="edge2_Node000001_Node000003" class="edge">
<title>Node1&#45;&gt;Node3</title>
<g id="a_edge2_Node000001_Node000003"><a xlink:title=" ">
<path fill="none" stroke="#63b8ff" d="M128.97,-48C139.69,-48 150.9,-48 161.87,-48"/>
<polygon fill="#63b8ff" stroke="#63b8ff" points="161.66,-51.5 171.66,-48 161.66,-44.5 161.66,-51.5"/>
</a>
</g>
</g>
<!-- Node4 -->
<g id="Node000004" class="node">
<title>Node4</title>
<g id="a_Node000004"><a xlink:href="group__pmsx003__basic__driver.html#gaf2d124f3aaa1108ddaafbc848911ea8e" target="_top" xlink:title="wake up">
<polygon fill="white" stroke="#666666" points="287.38,-20 187.38,-20 187.38,0 287.38,0 287.38,-20"/>
<text xml:space="preserve" text-anchor="middle" x="237.38" y="-6.5" font-family="Helvetica,sans-Serif" font-size="10.00">pmsx003_wake_up</text>
</a>
</g>
</g>
<!-- Node1&#45;&gt;Node4 -->
<g id="edge3_Node000001_Node000004" class="edge">
<title>Node1&#45;&gt;Node4</title>
<g id="a_edge3_Node000001_Node000004"><a xlink:title=" ">
<path fill="none" stroke="#63b8ff" d="M112.46,-37.52C132.85,-32.99 156.9,-27.65 178.36,-22.88"/>
<polygon fill="#63b8ff" stroke="#63b8ff" points="178.83,-26.36 187.84,-20.78 177.32,-19.53 178.83,-26.36"/>
</a>
</g>
</g>
</g>
</svg>
