<?xml version="1.0" encoding="UTF-8" standalone="no"?>
<!DOCTYPE svg PUBLIC "-//W3C//DTD SVG 1.1//EN"
 "http://www.w3.org/Graphics/SVG/1.1/DTD/svg11.dtd">
<!-- Generated by graphviz version 13.1.0 (20250701.0955)
 -->
<!-- Title: pmsx003_basic_init Pages: 1 -->
<svg width="292pt" height="756pt"
 viewBox="0.00 0.00 292.00 756.00" xmlns="http://www.w3.org/2000/svg" xmlns:xlink="http://www.w3.org/1999/xlink">
<g id="graph0" class="graph" transform="scale(1 1) rotate(0) translate(4 752)">
<title>pmsx003_basic_init</title>
<!-- Node1 -->
<g id="Node000001" class="node">
<title>Node1</title>
<g id="a_Node000001"><a xlink:title="basic example init">
<polygon fill="#999999" stroke="#666666" points="102.25,-378 0,-378 0,-358 102.25,-358 102.25,-378"/>
<text xml:space="preserve" text-anchor="middle" x="51.12" y="-364.5" font-family="Helvetica,sans-Serif" font-size="10.00">pmsx003_basic_init</text>
</a>
</g>
</g>
<!-- Node2 -->
<g id="Node000002" class="node">
<title>Node2</title>
<g id="a_Node000002"><a xlink:href="group__pmsx003__basic__driver.html#gadf93c7200bf6bd284d84e6a886aa960c" target="_top" xlink:title="close the chip">
<polygon fill="white" stroke="#666666" points="253.25,-748 169,-748 169,-728 253.25,-728 253.25,-748"/>
<text xml:space="preserve" text-anchor="middle" x="211.12" y="-734.5" font-family="Helvetica,sans-Serif" font-size="10.00">pmsx003_deinit</text>
</a>
</g>
</g>
<!-- Node1&#45;&gt;Node2 -->
<g id="edge1_Node000001_Node000002" class="edge">
<title>Node1&#45;&gt;Node2</title>
<g id="a_edge1_Node000001_Node000002"><a xlink:title=" ">
<path fill="none" stroke="#63b8ff" d="M53.23,-378.19C59.1,-430.47 88.23,-668.08 138.25,-719 143.66,-724.51 150.46,-728.48 157.71,-731.33"/>
<polygon fill="#63b8ff" stroke="#63b8ff" points="156.52,-734.62 167.11,-734.3 158.63,-727.95 156.52,-734.62"/>
</a>
</g>
</g>
<!-- Node3 -->
<g id="Node000003" class="node">
<title>Node3</title>
<g id="a_Node000003"><a xlink:href="group__pmsx003__basic__driver.html#gae378a12f2c2617a29e702814002f660c" target="_top" xlink:title="initialize the chip">
<polygon fill="white" stroke="#666666" points="248,-710 174.25,-710 174.25,-690 248,-690 248,-710"/>
<text xml:space="preserve" text-anchor="middle" x="211.12" y="-696.5" font-family="Helvetica,sans-Serif" font-size="10.00">pmsx003_init</text>
</a>
</g>
</g>
<!-- Node1&#45;&gt;Node3 -->
<g id="edge2_Node000001_Node000003" class="edge">
<title>Node1&#45;&gt;Node3</title>
<g id="a_edge2_Node000001_Node000003"><a xlink:title=" ">
<path fill="none" stroke="#63b8ff" d="M51.57,-378.44C49.86,-422.24 49.33,-592.97 138.25,-681 144.97,-687.65 153.72,-692.05 162.8,-694.94"/>
<polygon fill="#63b8ff" stroke="#63b8ff" points="161.9,-698.32 172.45,-697.4 163.62,-691.54 161.9,-698.32"/>
</a>
</g>
</g>
<!-- Node4 -->
<g id="Node000004" class="node">
<title>Node4</title>
<g id="a_Node000004"><a xlink:href="group__pmsx003__interface__driver.html#ga9529b182cc93de63c455792c4248a6ed" target="_top" xlink:title="interface print format data">
<polygon fill="white" stroke="#666666" points="276.12,-672 146.12,-672 146.12,-640 276.12,-640 276.12,-672"/>
<text xml:space="preserve" text-anchor="start" x="154.12" y="-658.5" font-family="Helvetica,sans-Serif" font-size="10.00">pmsx003_interface_debug</text>
<text xml:space="preserve" text-anchor="middle" x="211.12" y="-646.5" font-family="Helvetica,sans-Serif" font-size="10.00">_print</text>
</a>
</g>
</g>
<!-- Node1&#45;&gt;Node4 -->
<g id="edge3_Node000001_Node000004" class="edge">
<title>Node1&#45;&gt;Node4</title>
<g id="a_edge3_Node000001_Node000004"><a xlink:title=" ">
<path fill="none" stroke="#63b8ff" d="M52.39,-378.45C53.96,-417.46 64.7,-556.09 138.25,-631 138.86,-631.62 139.48,-632.22 140.12,-632.81"/>
<polygon fill="#63b8ff" stroke="#63b8ff" points="137.86,-635.49 147.95,-638.74 142.09,-629.91 137.86,-635.49"/>
</a>
</g>
</g>
<!-- Node5 -->
<g id="Node000005" class="node">
<title>Node5</title>
<g id="a_Node000005"><a xlink:href="group__pmsx003__interface__driver.html#gaea3b03b3d22a3e3f1a9e932873af1acf" target="_top" xlink:title="interface delay ms">
<polygon fill="white" stroke="#666666" points="284,-622 138.25,-622 138.25,-602 284,-602 284,-622"/>
<text xml:space="preserve" text-anchor="middle" x="211.12" y="-608.5" font-family="Helvetica,sans-Serif" font-size="10.00">pmsx003_interface_delay_ms</text>
</a>
</g>
</g>
<!-- Node1&#45;&gt;Node5 -->
<g id="edge4_Node000001_Node000005" class="edge">
<title>Node1&#45;&gt;Node5</title>
<g id="a_edge4_Node000001_Node000005"><a xlink:title=" ">
<path fill="none" stroke="#63b8ff" d="M52.85,-378.34C55.93,-413.95 71.04,-532.63 138.25,-593 139.33,-593.97 140.45,-594.89 141.62,-595.77"/>
<polygon fill="#63b8ff" stroke="#63b8ff" points="139.52,-598.59 149.88,-600.82 143.18,-592.62 139.52,-598.59"/>
</a>
</g>
</g>
<!-- Node6 -->
<g id="Node000006" class="node">
<title>Node6</title>
<g id="a_Node000006"><a xlink:href="group__pmsx003__interface__driver.html#gac89a7ccc75d71bc583028a0fc03242fb" target="_top" xlink:title="interface reset gpio deinit">
<polygon fill="white" stroke="#666666" points="273.88,-584 148.38,-584 148.38,-552 273.88,-552 273.88,-584"/>
<text xml:space="preserve" text-anchor="start" x="156.38" y="-570.5" font-family="Helvetica,sans-Serif" font-size="10.00">pmsx003_interface_reset</text>
<text xml:space="preserve" text-anchor="middle" x="211.12" y="-558.5" font-family="Helvetica,sans-Serif" font-size="10.00">_gpio_deinit</text>
</a>
</g>
</g>
<!-- Node1&#45;&gt;Node6 -->
<g id="edge5_Node000001_Node000006" class="edge">
<title>Node1&#45;&gt;Node6</title>
<g id="a_edge5_Node000001_Node000006"><a xlink:title=" ">
<path fill="none" stroke="#63b8ff" d="M54.31,-378.36C61.15,-408.31 84.98,-495.89 138.25,-543 139.17,-543.81 140.11,-544.59 141.08,-545.35"/>
<polygon fill="#63b8ff" stroke="#63b8ff" points="138.83,-548.06 149.1,-550.69 142.71,-542.24 138.83,-548.06"/>
</a>
</g>
</g>
<!-- Node7 -->
<g id="Node000007" class="node">
<title>Node7</title>
<g id="a_Node000007"><a xlink:href="group__pmsx003__interface__driver.html#ga95a343e050dbddbf89927ac3b1676e90" target="_top" xlink:title="interface reset gpio init">
<polygon fill="white" stroke="#666666" points="273.88,-534 148.38,-534 148.38,-502 273.88,-502 273.88,-534"/>
<text xml:space="preserve" text-anchor="start" x="156.38" y="-520.5" font-family="Helvetica,sans-Serif" font-size="10.00">pmsx003_interface_reset</text>
<text xml:space="preserve" text-anchor="middle" x="211.12" y="-508.5" font-family="Helvetica,sans-Serif" font-size="10.00">_gpio_init</text>
</a>
</g>
</g>
<!-- Node1&#45;&gt;Node7 -->
<g id="edge6_Node000001_Node000007" class="edge">
<title>Node1&#45;&gt;Node7</title>
<g id="a_edge6_Node000001_Node000007"><a xlink:title=" ">
<path fill="none" stroke="#63b8ff" d="M56.51,-378.38C67.05,-402.15 96.12,-460.9 138.25,-493 139.6,-494.03 140.99,-495.01 142.42,-495.96"/>
<polygon fill="#63b8ff" stroke="#63b8ff" points="140.59,-498.94 151,-500.91 144.08,-492.88 140.59,-498.94"/>
</a>
</g>
</g>
<!-- Node8 -->
<g id="Node000008" class="node">
<title>Node8</title>
<g id="a_Node000008"><a xlink:href="group__pmsx003__interface__driver.html#ga8b31b9506b140319dbb1d462117f09b5" target="_top" xlink:title="interface reset gpio write">
<polygon fill="white" stroke="#666666" points="273.88,-484 148.38,-484 148.38,-452 273.88,-452 273.88,-484"/>
<text xml:space="preserve" text-anchor="start" x="156.38" y="-470.5" font-family="Helvetica,sans-Serif" font-size="10.00">pmsx003_interface_reset</text>
<text xml:space="preserve" text-anchor="middle" x="211.12" y="-458.5" font-family="Helvetica,sans-Serif" font-size="10.00">_gpio_write</text>
</a>
</g>
</g>
<!-- Node1&#45;&gt;Node8 -->
<g id="edge7_Node000001_Node000008" class="edge">
<title>Node1&#45;&gt;Node8</title>
<g id="a_edge7_Node000001_Node000008"><a xlink:title=" ">
<path fill="none" stroke="#63b8ff" d="M61.48,-378.38C76.34,-394.29 106.86,-424.8 138.25,-443 140.56,-444.34 142.96,-445.63 145.42,-446.86"/>
<polygon fill="#63b8ff" stroke="#63b8ff" points="143.82,-449.98 154.37,-450.98 146.75,-443.62 143.82,-449.98"/>
</a>
</g>
</g>
<!-- Node9 -->
<g id="Node000009" class="node">
<title>Node9</title>
<g id="a_Node000009"><a xlink:href="group__pmsx003__interface__driver.html#ga03ad1d6bfed685875145c407d9234352" target="_top" xlink:title="interface set gpio deinit">
<polygon fill="white" stroke="#666666" points="269.75,-434 152.5,-434 152.5,-402 269.75,-402 269.75,-434"/>
<text xml:space="preserve" text-anchor="start" x="160.5" y="-420.5" font-family="Helvetica,sans-Serif" font-size="10.00">pmsx003_interface_set</text>
<text xml:space="preserve" text-anchor="middle" x="211.12" y="-408.5" font-family="Helvetica,sans-Serif" font-size="10.00">_gpio_deinit</text>
</a>
</g>
</g>
<!-- Node1&#45;&gt;Node9 -->
<g id="edge8_Node000001_Node000009" class="edge">
<title>Node1&#45;&gt;Node9</title>
<g id="a_edge8_Node000001_Node000009"><a xlink:title=" ">
<path fill="none" stroke="#63b8ff" d="M85.25,-378.48C103.2,-384.16 125.99,-391.38 147.18,-398.08"/>
<polygon fill="#63b8ff" stroke="#63b8ff" points="146.04,-401.39 156.63,-401.07 148.16,-394.72 146.04,-401.39"/>
</a>
</g>
</g>
<!-- Node10 -->
<g id="Node000010" class="node">
<title>Node10</title>
<g id="a_Node000010"><a xlink:href="group__pmsx003__interface__driver.html#gad40da2c7c8ccc96b5a191efc31b77fc0" target="_top" xlink:title="interface set gpio init">
<polygon fill="white" stroke="#666666" points="269.75,-384 152.5,-384 152.5,-352 269.75,-352 269.75,-384"/>
<text xml:space="preserve" text-anchor="start" x="160.5" y="-370.5" font-family="Helvetica,sans-Serif" font-size="10.00">pmsx003_interface_set</text>
<text xml:space="preserve" text-anchor="middle" x="211.12" y="-358.5" font-family="Helvetica,sans-Serif" font-size="10.00">_gpio_init</text>
</a>
</g>
</g>
<!-- Node1&#45;&gt;Node10 -->
<g id="edge9_Node000001_Node000010" class="edge">
<title>Node1&#45;&gt;Node10</title>
<g id="a_edge9_Node000001_Node000010"><a xlink:title=" ">
<path fill="none" stroke="#63b8ff" d="M102.55,-368C114.78,-368 128.05,-368 140.98,-368"/>
<polygon fill="#63b8ff" stroke="#63b8ff" points="140.69,-371.5 150.69,-368 140.69,-364.5 140.69,-371.5"/>
</a>
</g>
</g>
<!-- Node11 -->
<g id="Node000011" class="node">
<title>Node11</title>
<g id="a_Node000011"><a xlink:href="group__pmsx003__interface__driver.html#gacfa2270c5240798c7b7dff870a272833" target="_top" xlink:title="interface set gpio write">
<polygon fill="white" stroke="#666666" points="269.75,-334 152.5,-334 152.5,-302 269.75,-302 269.75,-334"/>
<text xml:space="preserve" text-anchor="start" x="160.5" y="-320.5" font-family="Helvetica,sans-Serif" font-size="10.00">pmsx003_interface_set</text>
<text xml:space="preserve" text-anchor="middle" x="211.12" y="-308.5" font-family="Helvetica,sans-Serif" font-size="10.00">_gpio_write</text>
</a>
</g>
</g>
<!-- Node1&#45;&gt;Node11 -->
<g id="edge10_Node000001_Node000011" class="edge">
<title>Node1&#45;&gt;Node11</title>
<g id="a_edge10_Node000001_Node000011"><a xlink:title=" ">
<path fill="none" stroke="#63b8ff" d="M85.25,-357.52C103.2,-351.84 125.99,-344.62 147.18,-337.92"/>
<polygon fill="#63b8ff" stroke="#63b8ff" points="148.16,-341.28 156.63,-334.93 146.04,-334.61 148.16,-341.28"/>
</a>
</g>
</g>
<!-- Node12 -->
<g id="Node000012" class="node">
<title>Node12</title>
<g id="a_Node000012"><a xlink:href="group__pmsx003__interface__driver.html#ga7d41d396e4ea3078b6ea4fa063fc9354" target="_top" xlink:title="interface uart deinit">
<polygon fill="white" stroke="#666666" points="271.25,-284 151,-284 151,-252 271.25,-252 271.25,-284"/>
<text xml:space="preserve" text-anchor="start" x="159" y="-270.5" font-family="Helvetica,sans-Serif" font-size="10.00">pmsx003_interface_uart</text>
<text xml:space="preserve" text-anchor="middle" x="211.12" y="-258.5" font-family="Helvetica,sans-Serif" font-size="10.00">_deinit</text>
</a>
</g>
</g>
<!-- Node1&#45;&gt;Node12 -->
<g id="edge11_Node000001_Node000012" class="edge">
<title>Node1&#45;&gt;Node12</title>
<g id="a_edge11_Node000001_Node000012"><a xlink:title=" ">
<path fill="none" stroke="#63b8ff" d="M61.48,-357.62C76.34,-341.71 106.86,-311.2 138.25,-293 140.56,-291.66 142.96,-290.37 145.42,-289.14"/>
<polygon fill="#63b8ff" stroke="#63b8ff" points="146.75,-292.38 154.37,-285.02 143.82,-286.02 146.75,-292.38"/>
</a>
</g>
</g>
<!-- Node13 -->
<g id="Node000013" class="node">
<title>Node13</title>
<g id="a_Node000013"><a xlink:href="group__pmsx003__interface__driver.html#ga630667fdbf895b3b6c4e6c7bc3f6f034" target="_top" xlink:title="interface uart flush">
<polygon fill="white" stroke="#666666" points="271.25,-234 151,-234 151,-202 271.25,-202 271.25,-234"/>
<text xml:space="preserve" text-anchor="start" x="159" y="-220.5" font-family="Helvetica,sans-Serif" font-size="10.00">pmsx003_interface_uart</text>
<text xml:space="preserve" text-anchor="middle" x="211.12" y="-208.5" font-family="Helvetica,sans-Serif" font-size="10.00">_flush</text>
</a>
</g>
</g>
<!-- Node1&#45;&gt;Node13 -->
<g id="edge12_Node000001_Node000013" class="edge">
<title>Node1&#45;&gt;Node13</title>
<g id="a_edge12_Node000001_Node000013"><a xlink:title=" ">
<path fill="none" stroke="#63b8ff" d="M56.51,-357.62C67.05,-333.85 96.12,-275.1 138.25,-243 139.6,-241.97 140.99,-240.99 142.42,-240.04"/>
<polygon fill="#63b8ff" stroke="#63b8ff" points="144.08,-243.12 151,-235.09 140.59,-237.06 144.08,-243.12"/>
</a>
</g>
</g>
<!-- Node14 -->
<g id="Node000014" class="node">
<title>Node14</title>
<g id="a_Node000014"><a xlink:href="group__pmsx003__interface__driver.html#ga8182a2bb7425dce6a84ddfc7dfff9723" target="_top" xlink:title="interface uart init">
<polygon fill="white" stroke="#666666" points="280.25,-184 142,-184 142,-164 280.25,-164 280.25,-184"/>
<text xml:space="preserve" text-anchor="middle" x="211.12" y="-170.5" font-family="Helvetica,sans-Serif" font-size="10.00">pmsx003_interface_uart_init</text>
</a>
</g>
</g>
<!-- Node1&#45;&gt;Node14 -->
<g id="edge13_Node000001_Node000014" class="edge">
<title>Node1&#45;&gt;Node14</title>
<g id="a_edge13_Node000001_Node000014"><a xlink:title=" ">
<path fill="none" stroke="#63b8ff" d="M54.05,-357.87C60.3,-327.79 82.96,-238.26 138.25,-193 139.56,-191.93 140.93,-190.91 142.34,-189.96"/>
<polygon fill="#63b8ff" stroke="#63b8ff" points="143.87,-193.11 150.89,-185.17 140.46,-187 143.87,-193.11"/>
</a>
</g>
</g>
<!-- Node15 -->
<g id="Node000015" class="node">
<title>Node15</title>
<g id="a_Node000015"><a xlink:href="group__pmsx003__interface__driver.html#ga38dbf3b68e3930dc3f6553160dd4fad4" target="_top" xlink:title="interface uart read">
<polygon fill="white" stroke="#666666" points="283.25,-146 139,-146 139,-126 283.25,-126 283.25,-146"/>
<text xml:space="preserve" text-anchor="middle" x="211.12" y="-132.5" font-family="Helvetica,sans-Serif" font-size="10.00">pmsx003_interface_uart_read</text>
</a>
</g>
</g>
<!-- Node1&#45;&gt;Node15 -->
<g id="edge14_Node000001_Node000015" class="edge">
<title>Node1&#45;&gt;Node15</title>
<g id="a_edge14_Node000001_Node000015"><a xlink:title=" ">
<path fill="none" stroke="#63b8ff" d="M53.09,-357.72C56.9,-323.4 73.92,-211.71 138.25,-155 139.34,-154.04 140.47,-153.13 141.64,-152.26"/>
<polygon fill="#63b8ff" stroke="#63b8ff" points="143.19,-155.41 149.94,-147.24 139.57,-149.42 143.19,-155.41"/>
</a>
</g>
</g>
<!-- Node16 -->
<g id="Node000016" class="node">
<title>Node16</title>
<g id="a_Node000016"><a xlink:href="group__pmsx003__interface__driver.html#gab305365a77ed076171e37f00f7d0d307" target="_top" xlink:title="interface uart write">
<polygon fill="white" stroke="#666666" points="271.25,-108 151,-108 151,-76 271.25,-76 271.25,-108"/>
<text xml:space="preserve" text-anchor="start" x="159" y="-94.5" font-family="Helvetica,sans-Serif" font-size="10.00">pmsx003_interface_uart</text>
<text xml:space="preserve" text-anchor="middle" x="211.12" y="-82.5" font-family="Helvetica,sans-Serif" font-size="10.00">_write</text>
</a>
</g>
</g>
<!-- Node1&#45;&gt;Node16 -->
<g id="edge15_Node000001_Node000016" class="edge">
<title>Node1&#45;&gt;Node16</title>
<g id="a_edge15_Node000001_Node000016"><a xlink:title=" ">
<path fill="none" stroke="#63b8ff" d="M52.57,-357.75C54.76,-320.14 67.38,-188.17 138.25,-117 139.27,-115.97 140.34,-114.99 141.44,-114.04"/>
<polygon fill="#63b8ff" stroke="#63b8ff" points="143.21,-117.08 149.35,-108.44 139.17,-111.37 143.21,-117.08"/>
</a>
</g>
</g>
<!-- Node17 -->
<g id="Node000017" class="node">
<title>Node17</title>
<g id="a_Node000017"><a xlink:href="group__pmsx003__basic__driver.html#ga112be5b27e9073d8d8ebfc35c4e50615" target="_top" xlink:title="set hard mode">
<polygon fill="white" stroke="#666666" points="275,-58 147.25,-58 147.25,-38 275,-38 275,-58"/>
<text xml:space="preserve" text-anchor="middle" x="211.12" y="-44.5" font-family="Helvetica,sans-Serif" font-size="10.00">pmsx003_set_hard_mode</text>
</a>
</g>
</g>
<!-- Node1&#45;&gt;Node17 -->
<g id="edge16_Node000001_Node000017" class="edge">
<title>Node1&#45;&gt;Node17</title>
<g id="a_edge16_Node000001_Node000017"><a xlink:title=" ">
<path fill="none" stroke="#63b8ff" d="M51.71,-357.66C50.6,-315.05 52.26,-151.27 138.25,-67 139.02,-66.25 139.81,-65.53 140.62,-64.83"/>
<polygon fill="#63b8ff" stroke="#63b8ff" points="142.57,-67.74 148.9,-59.25 138.65,-61.94 142.57,-67.74"/>
</a>
</g>
</g>
<!-- Node18 -->
<g id="Node000018" class="node">
<title>Node18</title>
<g id="a_Node000018"><a xlink:href="group__pmsx003__basic__driver.html#gaf3b063fa0a1d35ed13d36948ca4e1f56" target="_top" xlink:title="set mode">
<polygon fill="white" stroke="#666666" points="263,-20 159.25,-20 159.25,0 263,0 263,-20"/>
<text xml:space="preserve" text-anchor="middle" x="211.12" y="-6.5" font-family="Helvetica,sans-Serif" font-size="10.00">pmsx003_set_mode</text>
</a>
</g>
</g>
<!-- Node1&#45;&gt;Node18 -->
<g id="edge17_Node000001_Node000018" class="edge">
<title>Node1&#45;&gt;Node18</title>
<g id="a_edge17_Node000001_Node000018"><a xlink:title=" ">
<path fill="none" stroke="#63b8ff" d="M53.32,-357.82C59.54,-306.64 89.75,-77.97 138.25,-29 141.29,-25.93 144.76,-23.34 148.51,-21.15"/>
<polygon fill="#63b8ff" stroke="#63b8ff" points="149.99,-24.32 157.55,-16.91 147.01,-17.99 149.99,-24.32"/>
</a>
</g>
</g>
</g>
</svg>
