<?xml version="1.0" encoding="UTF-8" standalone="no"?>
<!DOCTYPE svg PUBLIC "-//W3C//DTD SVG 1.1//EN"
 "http://www.w3.org/Graphics/SVG/1.1/DTD/svg11.dtd">
<!-- Generated by graphviz version 13.1.0 (20250701.0955)
 -->
<!-- Title: pmsx003_basic_sleep Pages: 1 -->
<svg width="285pt" height="66pt"
 viewBox="0.00 0.00 285.00 66.00" xmlns="http://www.w3.org/2000/svg" xmlns:xlink="http://www.w3.org/1999/xlink">
<g id="graph0" class="graph" transform="scale(1 1) rotate(0) translate(4 62)">
<title>pmsx003_basic_sleep</title>
<!-- Node1 -->
<g id="Node000001" class="node">
<title>Node1</title>
<g id="a_Node000001"><a xlink:title="basic sleep">
<polygon fill="#999999" stroke="#666666" points="112.75,-39 0,-39 0,-19 112.75,-19 112.75,-39"/>
<text xml:space="preserve" text-anchor="middle" x="56.38" y="-25.5" font-family="Helvetica,sans-Serif" font-size="10.00">pmsx003_basic_sleep</text>
</a>
</g>
</g>
<!-- Node2 -->
<g id="Node000002" class="node">
<title>Node2</title>
<g id="a_Node000002"><a xlink:href="group__pmsx003__basic__driver.html#ga112be5b27e9073d8d8ebfc35c4e50615" target="_top" xlink:title="set hard mode">
<polygon fill="white" stroke="#666666" points="276.5,-58 148.75,-58 148.75,-38 276.5,-38 276.5,-58"/>
<text xml:space="preserve" text-anchor="middle" x="212.62" y="-44.5" font-family="Helvetica,sans-Serif" font-size="10.00">pmsx003_set_hard_mode</text>
</a>
</g>
</g>
<!-- Node1&#45;&gt;Node2 -->
<g id="edge1_Node000001_Node000002" class="edge">
<title>Node1&#45;&gt;Node2</title>
<g id="a_edge1_Node000001_Node000002"><a xlink:title=" ">
<path fill="none" stroke="#63b8ff" d="M113.06,-35.86C120.86,-36.82 128.98,-37.82 137.06,-38.82"/>
<polygon fill="#63b8ff" stroke="#63b8ff" points="136.57,-42.28 146.92,-40.03 137.43,-35.33 136.57,-42.28"/>
</a>
</g>
</g>
<!-- Node3 -->
<g id="Node000003" class="node">
<title>Node3</title>
<g id="a_Node000003"><a xlink:href="group__pmsx003__basic__driver.html#ga1cff6470b3e17eb0d19db8fae6ea3123" target="_top" xlink:title="sleep">
<polygon fill="white" stroke="#666666" points="254.75,-20 170.5,-20 170.5,0 254.75,0 254.75,-20"/>
<text xml:space="preserve" text-anchor="middle" x="212.62" y="-6.5" font-family="Helvetica,sans-Serif" font-size="10.00">pmsx003_sleep</text>
</a>
</g>
</g>
<!-- Node1&#45;&gt;Node3 -->
<g id="edge2_Node000001_Node000003" class="edge">
<title>Node1&#45;&gt;Node3</title>
<g id="a_edge2_Node000001_Node000003"><a xlink:title=" ">
<path fill="none" stroke="#63b8ff" d="M113.06,-22.14C128.05,-20.29 144.22,-18.3 159.04,-16.48"/>
<polygon fill="#63b8ff" stroke="#63b8ff" points="159.06,-20 168.56,-15.3 158.21,-13.05 159.06,-20"/>
</a>
</g>
</g>
</g>
</svg>
